<?xml version="1.0" standalone="no"?>
<!DOCTYPE svg PUBLIC "-//W3C//DTD SVG 20010904//EN"
 "http://www.w3.org/TR/2001/REC-SVG-20010904/DTD/svg10.dtd">
<svg version="1.0" xmlns="http://www.w3.org/2000/svg"
 width="72.000000pt" height="72.000000pt" viewBox="0 0 72.000000 72.000000"
 preserveAspectRatio="xMidYMid meet">
<metadata>
Created by potrace 1.14, written by Peter Selinger 2001-2017
</metadata>
<g transform="translate(0.000000,72.000000) scale(0.100000,-0.100000)"
fill="#000000" stroke="none">
<path d="M72 618 c-9 -9 -12 -79 -12 -254 0 -133 3 -249 6 -258 5 -14 40 -16
288 -16 206 0 285 3 294 12 17 17 17 499 0 516 -17 17 -559 17 -576 0z m354
-170 c-13 -35 -36 -97 -50 -138 -35 -99 -38 -102 -73 -98 l-30 3 38 105 c77
209 67 190 104 190 l34 0 -23 -62z m-174 -5 c18 -16 17 -18 -14 -50 l-32 -33
32 -33 c31 -32 32 -34 14 -50 -10 -9 -23 -17 -28 -17 -5 0 -32 23 -59 50 l-49
50 49 50 c27 28 54 50 59 50 5 0 18 -8 28 -17z m301 -31 l47 -48 -54 -53 c-47
-46 -57 -52 -70 -41 -22 18 -20 30 11 62 l27 28 -32 33 c-30 31 -31 34 -15 50
25 25 34 22 86 -31z"/>
</g>
</svg>
